<?xml version="1.0"?><svg xmlns="http://www.w3.org/2000/svg" xmlns:xlink="http://www.w3.org/1999/xlink" version="1.1" viewBox="0 0 24 24" style="enable-background:new 0 0 24 24;" xml:space="preserve"><style type="text/css">
	.st0{opacity:0.2;fill:none;stroke:#000000;stroke-width:0.05;stroke-miterlimit:10;}
</style><g id="grid_system"/><g id="Layer_2"><path d="M19.89648,13.90723c0.56641,0.04199,1.0293-0.37598,1.06836-0.92578c0.12891-1.80469-0.09375-3.60059-0.66211-5.33691   c-0.48828-1.49609-1.83594-2.65332-3.51855-3.02051c-3.78516-0.83008-7.78613-0.83008-11.56738,0   C3.5332,4.99121,2.18555,6.14844,1.69727,7.64453c-0.93066,2.84961-0.93066,5.86133,0,8.71094   c0.48828,1.49609,1.83594,2.65332,3.51855,3.02051c1.5166,0.33301,3.07715,0.53516,4.63965,0.59961   c0.01465,0.00098,0.02832,0.00098,0.04297,0.00098c0.5332,0,0.97559-0.4209,0.99805-0.95801   C10.91992,18.4668,10.49121,18,9.93945,17.97754c-1.44727-0.06055-2.8916-0.24707-4.29688-0.55469   c-0.99219-0.2168-1.77539-0.86426-2.04492-1.68848c-0.77661-2.3783-0.79102-4.8869-0.05579-7.27222   c1.45001,1.67017,3.13257,3.10919,5.04114,4.25464C9.30273,13.15039,10.13867,13.37988,11,13.37988   s1.69727-0.22949,2.41504-0.66211c1.90997-1.14618,3.59247-2.58496,5.04175-4.25415   c0.44012,1.42792,0.61847,2.89825,0.51392,4.37524C18.93066,13.39062,19.3457,13.86816,19.89648,13.90723z M12.38379,11.00391   c-0.81641,0.49219-1.94922,0.49316-2.76953-0.00098C7.78662,9.90564,6.18445,8.51752,4.82367,6.89221   c0.25208-0.1358,0.52179-0.25,0.81989-0.31506c3.50293-0.76758,7.20703-0.76562,10.71387,0   c0.29767,0.06506,0.56714,0.17914,0.81897,0.31488C15.81622,8.51703,14.21362,9.90546,12.38379,11.00391z"/><path d="M22.11621,17.31934l-2.0918-0.82422c-0.46387-0.18359-0.83594-0.55566-1.01855-1.01758l-0.8252-2.09375   C18.0293,13.00098,17.66113,12.75,17.25,12.75s-0.7793,0.25098-0.93066,0.63379l-0.82422,2.0918   c-0.18359,0.46387-0.55566,0.83594-1.01758,1.01855l-2.09375,0.8252C12.00098,17.4707,11.75,17.83887,11.75,18.25   s0.25098,0.7793,0.63379,0.93066l2.0918,0.82422c0.46387,0.18359,0.83594,0.55566,1.01855,1.01758l0.8252,2.09375   C16.4707,23.49902,16.83887,23.75,17.25,23.75s0.7793-0.25098,0.93066-0.63379l0.82422-2.0918   c0.18359-0.46387,0.55566-0.83594,1.01758-1.01855l2.09375-0.8252C22.49902,19.0293,22.75,18.66113,22.75,18.25   S22.49902,17.4707,22.11621,17.31934z M17.25,20.04883c-0.375-0.78516-1.01367-1.42285-1.79883-1.79883   c0.78516-0.37598,1.42285-1.01367,1.79883-1.79883c0.375,0.78516,1.01367,1.42285,1.79883,1.79883   C18.26367,18.625,17.62598,19.26367,17.25,20.04883z"/></g></svg>